<svg class="icon" viewBox="0 0 1024 1024" version="1.1" xmlns="http://www.w3.org/2000/svg" width="24" height="24"><path d="M825.05728 295.87456l0 575.37536c0 33.92512-27.50464 61.44-61.44 61.44-33.92512 0-61.44-27.51488-61.44-61.44L702.17728 357.31456l-281.6 0c-1.28 0-2.51904-0.12288-3.77856-0.19456l46.16192 116.84864c1.65888 4.16768 0.31744 8.93952-3.25632 11.64288s-8.54016 2.68288-12.10368-0.06144L202.84416 297.37984c-2.4576-1.91488-3.90144-4.8128-3.90144-7.91552s1.44384-6.03136 3.90144-7.90528L447.60064 93.36832c1.80224-1.3824 3.92192-2.05824 6.08256-2.05824 2.11968 0 4.21888 0.65536 6.02112 1.9968 3.584 2.70336 4.9152 7.46496 3.25632 11.66336l-49.22368 124.57984 0 5.28384c2.26304-0.24576 4.51584-0.39936 6.84032-0.39936l343.04 0C797.56288 234.43456 825.05728 261.9392 825.05728 295.87456z"></path></svg>